<svg width="28" height="28" viewBox="0 0 28 28" fill="none" xmlns="http://www.w3.org/2000/svg">
<path d="M14 14C12.7166 14 11.618 13.5431 10.7041 12.6292C9.79024 11.7153 9.33329 10.6167 9.33329 9.33333C9.33329 8.05 9.79024 6.95139 10.7041 6.0375C11.618 5.12361 12.7166 4.66666 14 4.66666C15.2833 4.66666 16.3819 5.12361 17.2958 6.0375C18.2097 6.95139 18.6666 8.05 18.6666 9.33333C18.6666 10.6167 18.2097 11.7153 17.2958 12.6292C16.3819 13.5431 15.2833 14 14 14ZM4.66663 23.3333V20.0667C4.66663 19.4056 4.83696 18.7981 5.17763 18.2443C5.51829 17.6906 5.97018 17.2674 6.53329 16.975C7.73885 16.3722 8.96385 15.9203 10.2083 15.6193C11.4527 15.3183 12.7166 15.1674 14 15.1667C15.2833 15.1659 16.5472 15.3168 17.7916 15.6193C19.0361 15.9219 20.2611 16.3738 21.4666 16.975C22.0305 17.2667 22.4828 17.6898 22.8235 18.2443C23.1641 18.7989 23.3341 19.4063 23.3333 20.0667V23.3333H4.66663Z" fill="#F2F2F2"/>
</svg>
