<svg width="28" height="28" viewBox="0 0 28 28" fill="none" xmlns="http://www.w3.org/2000/svg">
<g clip-path="url(#clip0_1_271)">
<path d="M14.875 5.83334H7.87502C7.64296 5.83334 7.4204 5.92552 7.2563 6.08962C7.09221 6.25371 7.00002 6.47627 7.00002 6.70834C7.00002 6.9404 7.09221 7.16296 7.2563 7.32705C7.4204 7.49115 7.64296 7.58334 7.87502 7.58334H14.875C15.1071 7.58334 15.3296 7.49115 15.4937 7.32705C15.6578 7.16296 15.75 6.9404 15.75 6.70834C15.75 6.47627 15.6578 6.25371 15.4937 6.08962C15.3296 5.92552 15.1071 5.83334 14.875 5.83334ZM15.75 10.7917C15.747 10.5605 15.6538 10.3397 15.4904 10.1763C15.327 10.0128 15.1061 9.91969 14.875 9.91667H5.54169C5.30962 9.91667 5.08706 10.0089 4.92297 10.173C4.75887 10.337 4.66669 10.5596 4.66669 10.7917C4.66669 11.0237 4.75887 11.2463 4.92297 11.4104C5.08706 11.5745 5.30962 11.6667 5.54169 11.6667H14.875C15.1061 11.6636 15.327 11.5705 15.4904 11.407C15.6538 11.2436 15.747 11.0228 15.75 10.7917ZM5.54169 14C5.30962 14 5.08706 14.0922 4.92297 14.2563C4.75887 14.4204 4.66669 14.6429 4.66669 14.875C4.66669 15.1071 4.75887 15.3296 4.92297 15.4937C5.08706 15.6578 5.30962 15.75 5.54169 15.75H11.9584C12.1904 15.75 12.413 15.6578 12.5771 15.4937C12.7412 15.3296 12.8334 15.1071 12.8334 14.875C12.8334 14.6429 12.7412 14.4204 12.5771 14.2563C12.413 14.0922 12.1904 14 11.9584 14H5.54169Z" fill="#F2F2F2"/>
<path d="M13.1833 20.5917C13.1606 20.5395 13.123 20.4951 13.0753 20.464C13.0277 20.4329 12.9719 20.4165 12.915 20.4167H2.91667C2.76196 20.4167 2.61358 20.3552 2.50419 20.2458C2.39479 20.1364 2.33333 19.988 2.33333 19.8333V2.91667C2.33333 2.76196 2.39479 2.61358 2.50419 2.50419C2.61358 2.39479 2.76196 2.33333 2.91667 2.33333H18.0833C18.238 2.33333 18.3864 2.39479 18.4958 2.50419C18.6052 2.61358 18.6667 2.76196 18.6667 2.91667V14.665C18.6665 14.7219 18.6829 14.7777 18.714 14.8253C18.7451 14.873 18.7895 14.9106 18.8417 14.9333C18.8959 14.9564 18.9557 14.9632 19.0137 14.9528C19.0717 14.9424 19.1254 14.9154 19.1683 14.875L20.6617 13.3817C20.8749 13.1581 20.9957 12.8622 21 12.5533V2.33333C21 1.71449 20.7542 1.121 20.3166 0.683418C19.879 0.245833 19.2855 0 18.6667 0L2.33333 0C1.71449 0 1.121 0.245833 0.683418 0.683418C0.245833 1.121 0 1.71449 0 2.33333L0 20.4167C0 21.0355 0.245833 21.629 0.683418 22.0666C1.121 22.5042 1.71449 22.75 2.33333 22.75H11.515C11.6397 22.7508 11.7614 22.7115 11.8622 22.638C11.963 22.5645 12.0376 22.4607 12.075 22.3417C12.1823 21.9772 12.3835 21.6473 12.6583 21.385L13.125 20.9183C13.1654 20.8754 13.1924 20.8217 13.2028 20.7637C13.2132 20.7057 13.2064 20.6459 13.1833 20.5917ZM14.07 23.485C14.0324 23.4483 13.9856 23.4224 13.9346 23.41C13.8835 23.3977 13.83 23.3994 13.7798 23.4149C13.7296 23.4304 13.6846 23.4592 13.6494 23.4983C13.6142 23.5373 13.5902 23.5851 13.58 23.6367L12.8333 27.3C12.8163 27.3942 12.8223 27.4911 12.8507 27.5825C12.8792 27.6739 12.9292 27.7571 12.9967 27.825C13.0488 27.881 13.112 27.9256 13.1823 27.9557C13.2526 27.9858 13.3285 28.0009 13.405 28H13.5217L17.185 27.265C17.2368 27.2561 17.2851 27.2328 17.3243 27.1977C17.3636 27.1626 17.3921 27.1172 17.4067 27.0667C17.4254 27.0166 17.4287 26.9621 17.4162 26.9101C17.4038 26.8582 17.3761 26.8111 17.3367 26.775L14.07 23.485ZM27.1017 13.7317C26.8187 13.4474 26.4824 13.2217 26.112 13.0678C25.7416 12.9138 25.3444 12.8346 24.9433 12.8346C24.5422 12.8346 24.1451 12.9138 23.7747 13.0678C23.4043 13.2217 23.0679 13.4474 22.785 13.7317L15.1667 21.315C15.1109 21.3674 15.0664 21.4306 15.036 21.5009C15.0056 21.5711 14.9899 21.6468 14.9899 21.7233C14.9899 21.7999 15.0056 21.8756 15.036 21.9458C15.0664 22.016 15.1109 22.0793 15.1667 22.1317L18.6667 25.6317C18.719 25.6875 18.7823 25.7319 18.8525 25.7623C18.9228 25.7928 18.9985 25.8084 19.075 25.8084C19.1515 25.8084 19.2272 25.7928 19.2975 25.7623C19.3677 25.7319 19.431 25.6875 19.4833 25.6317L27.0783 18.0483C27.3642 17.7669 27.5916 17.4318 27.7476 17.0623C27.9035 16.6927 27.9849 16.296 27.9871 15.8948C27.9893 15.4937 27.9121 15.0961 27.7602 14.7249C27.6083 14.3537 27.3845 14.0161 27.1017 13.7317Z" fill="#F2F2F2"/>
</g>
<defs>
<clipPath id="clip0_1_271">
<rect width="28" height="28" fill="white"/>
</clipPath>
</defs>
</svg>
