<svg width="28" height="28" viewBox="0 0 28 28" fill="none" xmlns="http://www.w3.org/2000/svg">
<path d="M25.3283 23.6717L23.6717 25.3283C23.4531 25.5456 23.1574 25.6676 22.8492 25.6676C22.5409 25.6676 22.2452 25.5456 22.0267 25.3283L8.16666 11.4917C7.7873 11.6017 7.39494 11.6606 6.99999 11.6667C6.25718 11.6661 5.52522 11.4883 4.86498 11.1479C4.20473 10.8076 3.63528 10.3145 3.20396 9.70973C2.77264 9.10497 2.49192 8.40599 2.38513 7.67089C2.27834 6.93579 2.34857 6.18582 2.58999 5.48334L5.55332 8.44667L6.17166 7.82834L7.82832 6.17167L8.44665 5.55334L5.48332 2.59C6.18581 2.34859 6.93578 2.27836 7.67088 2.38514C8.40598 2.49193 9.10496 2.77266 9.70972 3.20397C10.3145 3.63529 10.8075 4.20475 11.1479 4.86499C11.4883 5.52523 11.6661 6.25719 11.6667 7C11.6606 7.39495 11.6017 7.78731 11.4917 8.16667L25.3283 22.0267C25.5456 22.2453 25.6676 22.541 25.6676 22.8492C25.6676 23.1574 25.5456 23.4531 25.3283 23.6717ZM2.67166 22.0267C2.45436 22.2453 2.3324 22.541 2.3324 22.8492C2.3324 23.1574 2.45436 23.4531 2.67166 23.6717L4.32832 25.3283C4.54691 25.5456 4.84261 25.6676 5.15082 25.6676C5.45904 25.6676 5.75473 25.5456 5.97332 25.3283L12.355 18.9583L9.05332 15.6567M23.3333 2.33334L18.6667 4.66667V7L16.135 9.53167L18.4683 11.865L21 9.33334H23.3333L25.6667 4.66667L23.3333 2.33334Z" fill="#F2F2F2"/>
</svg>
